[img]http://img339.imageshack.us/img339/9679/posterbw.jpg[/img]
[CODE]

Insidious 2011 Cam READNFO XViD - IMAGiNE

Ripper ...........: IMAGiNE                                        IMDB Rating.......:7.4/10                             
Video Codec.......: XVID                                         Release Date......:14/04/11
Audio Codec.......:MP3                                           Theatre Date......:01/04/11
Audio Bitrate.....:128                                              Runtime.......:1h 37mn
Subtitles.........:NIL                                                 Language..........:ENGLISH
Resolution...... 704 x 280                                      IMDb URL.......... http://www.imdb.com/title/tt1591095/


DETAILS:

Video
ID                               : 0
Format                           : MPEG-4 Visual
Format profile                   : Advanced Simple@L5
Format settings, BVOP            : 2
Format settings, QPel            : No
Format settings, GMC             : No warppoints
Format settings, Matrix          : Default (MPEG)
Muxing mode                      : Packed bitstream
Codec ID                         : XVID
Codec ID/Hint                    : XviD
Duration                         : 1h 37mn
Bit rate                         : 1 819 Kbps
Width                            : 704 pixels
Height                           : 280 pixels
Display aspect ratio             : 2.514
Frame rate                       : 25.000 fps
Color space                      : YUV
Chroma subsampling               : 4:2:0
Bit depth                        : 8 bits
Scan type                        : Progressive
Compression mode                 : Lossy
Bits/(Pixel*Frame)               : 0.369
Stream size                      : 1.24 GiB (93%)
Writing library                  : XviD 62

Audio
ID                               : 1
Format                           : MPEG Audio
Format version                   : Version 1
Format profile                   : Layer 3
Mode                             : Joint stereo
Mode extension                   : MS Stereo
Codec ID                         : 55
Codec ID/Hint                    : MP3
Duration                         : 1h 37mn
Bit rate mode                    : Constant
Bit rate                         : 128 Kbps
Channel(s)                       : 2 channels
Sampling rate                    : 44.1 KHz
Compression mode                 : Lossy
Stream size                      : 89.6 MiB (7%)
Alignment                        : Split accross interleaves
Interleave, duration             : 40 ms (1.00 video frame)
Writing library                  : LAME3.98r

PLOT:A family looks to prevent evil spirits from trapping their comatose child in a realm called The Further.

SOURCES:
VIDEO: ELEKTRI4KA thanx 
AUDIO: Thanx Mate 

NOTES:
IMAGiNE bringing you another release..........

This time around we have Insidious.....

Was hoping to have line for this one but since the mic audio we have is decent enough we figured this would do for now Video was a bit cropped top and bottom and had some wierd color change throughout, so we made a script to sharpen and adjust brightness contrast and so on...

The source had alot of green to it so that was toned down and some red was put back into it to make things look natural again Now the audio is from 2 different sources as the main audio used was missing the first 2 minutes and 12 seconds, so we used another source we had to fill that spot,filtered to match as much as could be done so beware of the change over @ 2:12
Overall a decent cam, but retail not far away so...
Enjoy folks! 

[/CODE]
Screens:
[img]http://img848.imageshack.us/img848/4264/41373941.jpg[/img]
[img]http://img855.imageshack.us/img855/5815/31816789.jpg[/img]
[img]http://img199.imageshack.us/img199/127/12139107.jpg[/img]